<?xml version="1.0" encoding="utf-8"?>
<svg fill="#afafaf" width="800px" height="800px" viewBox="-5.5 0 32 32" version="1.1" xmlns="http://www.w3.org/2000/svg">
<title>eye-slash</title>
<path d="M20.44 15.48c-0.12-0.16-2.28-2.92-5.48-4.56l0.92-3c0.12-0.44-0.12-0.92-0.56-1.040s-0.92 0.12-1.040 0.56l-0.88 2.8c-0.96-0.32-2-0.56-3.080-0.56-5.6 0-9.92 5.56-10.12 5.8-0.24 0.32-0.24 0.72 0 1.040 0.16 0.24 4.2 5.36 9.48 5.76l-0.56 1.8c-0.12 0.44 0.12 0.92 0.56 1.040 0.080 0.040 0.16 0.040 0.24 0.040 0.36 0 0.68-0.24 0.8-0.6l0.72-2.36c5-0.68 8.8-5.48 9-5.72 0.24-0.28 0.24-0.68 0-1zM1.96 16c1.16-1.32 4.52-4.64 8.36-4.64 0.88 0 1.76 0.2 2.6 0.48l-0.28 0.88c-0.68-0.48-1.48-0.72-2.32-0.72-2.2 0-4 1.8-4 4s1.8 4 4 4c0.040 0 0.040 0 0.080 0l-0.2 0.64c-3.8-0.080-7.080-3.36-8.24-4.64zM10.88 18.24c-0.2 0.040-0.4 0.080-0.6 0.080-1.28 0-2.32-1.040-2.32-2.32s1.040-2.32 2.32-2.32c0.68 0 1.32 0.32 1.76 0.8l-1.16 3.76zM12 20.44l2.4-7.88c1.96 1.080 3.52 2.64 4.24 3.44-0.96 1.12-3.52 3.68-6.64 4.44z"></path>
</svg>