<?xml version="1.0" encoding="utf-8"?>
<svg fill="#afafaf" width="800px" height="800px" viewBox="-5.5 0 32 32" version="1.1" xmlns="http://www.w3.org/2000/svg">
<title>eye</title>
<path d="M10.32 22.32c-5.6 0-9.92-5.56-10.12-5.8-0.24-0.32-0.24-0.72 0-1.040 0.2-0.24 4.52-5.8 10.12-5.8s9.92 5.56 10.12 5.8c0.24 0.32 0.24 0.72 0 1.040-0.2 0.24-4.56 5.8-10.12 5.8zM1.96 16c1.16 1.32 4.52 4.64 8.36 4.64s7.2-3.32 8.36-4.64c-1.16-1.32-4.52-4.64-8.36-4.64s-7.2 3.32-8.36 4.64zM10.32 20c-2.2 0-4-1.8-4-4s1.8-4 4-4 4 1.8 4 4-1.84 4-4 4zM10.32 13.68c-1.28 0-2.32 1.040-2.32 2.32s1.040 2.32 2.32 2.32 2.32-1.040 2.32-2.32-1.040-2.32-2.32-2.32z"></path>
</svg>