<svg xmlns="http://www.w3.org/2000/svg" xmlns:xlink="http://www.w3.org/1999/xlink" version="1.1" x="0px" y="0px" viewBox="0 0 100 100" style="enable-background:new 0 0 100 100;" xml:space="preserve"><g><path d="M55.8,90.6H44.2c-0.2,0-0.4-0.1-0.6-0.2l-6.8-4.2c-0.3-0.2-0.5-0.6-0.5-1V8.6c0-0.6,0.5-1.1,1.1-1.1   c0.6,0,1.1,0.5,1.1,1.1v76.1l6,3.7h11l6-3.7V8.6c0-0.6,0.5-1.1,1.1-1.1c0.6,0,1.1,0.5,1.1,1.1v76.7c0,0.4-0.2,0.8-0.5,1l-6.8,4.2   C56.2,90.5,56,90.6,55.8,90.6z"/><path d="M62.6,100c-0.4,0-0.8-0.2-1-0.6c-0.3-0.5-0.1-1.2,0.5-1.5l12-6.4v-88c0-0.7-0.6-1.2-1.2-1.2H27.2   c-0.7,0-1.2,0.6-1.2,1.2v88l12,6.4c0.5,0.3,0.8,1,0.5,1.5c-0.3,0.5-1,0.8-1.5,0.5l-12.6-6.7c-0.4-0.2-0.6-0.6-0.6-1V3.5   c0-1.9,1.6-3.5,3.5-3.5h45.7c1.9,0,3.5,1.6,3.5,3.5v88.7c0,0.4-0.2,0.8-0.6,1l-12.6,6.7C63,100,62.8,100,62.6,100z"/><path d="M62.6,100H37.4c-0.6,0-1.1-0.5-1.1-1.1s0.5-1.1,1.1-1.1h25.3c0.6,0,1.1,0.5,1.1,1.1S63.3,100,62.6,100z"/><path d="M62.6,21H37.4c-0.6,0-1.1-0.5-1.1-1.1c0-0.6,0.5-1.1,1.1-1.1h25.3c0.6,0,1.1,0.5,1.1,1.1   C63.8,20.5,63.3,21,62.6,21z"/><path d="M62.6,29.6H37.4c-0.6,0-1.1-0.5-1.1-1.1c0-0.6,0.5-1.1,1.1-1.1h25.3c0.6,0,1.1,0.5,1.1,1.1   C63.8,29.1,63.3,29.6,62.6,29.6z"/><path d="M62.6,38.1H37.4c-0.6,0-1.1-0.5-1.1-1.1c0-0.6,0.5-1.1,1.1-1.1h25.3c0.6,0,1.1,0.5,1.1,1.1   C63.8,37.6,63.3,38.1,62.6,38.1z"/><path d="M62.6,46.6H37.4c-0.6,0-1.1-0.5-1.1-1.1c0-0.6,0.5-1.1,1.1-1.1h25.3c0.6,0,1.1,0.5,1.1,1.1   C63.8,46.1,63.3,46.6,62.6,46.6z"/><path d="M50,72.7c-3.9,0-7.1-3.2-7.1-7.1c0-2.1,0.9-4.1,2.6-5.5c0.5-0.4,1.2-0.3,1.6,0.1c0.4,0.5,0.3,1.2-0.1,1.6   c-1.1,0.9-1.7,2.3-1.7,3.7c0,2.7,2.2,4.9,4.9,4.9c2.7,0,4.9-2.2,4.9-4.9c0-1.5-0.7-2.9-1.9-3.8c-0.5-0.4-0.6-1.1-0.2-1.6   c0.4-0.5,1.1-0.6,1.6-0.2c1.7,1.4,2.7,3.4,2.7,5.6C57.1,69.5,53.9,72.7,50,72.7z"/><path d="M50,65.1c-0.6,0-1.1-0.5-1.1-1.1v-6.8c0-0.6,0.5-1.1,1.1-1.1c0.6,0,1.1,0.5,1.1,1.1v6.8   C51.1,64.5,50.6,65.1,50,65.1z"/></g></svg>