<svg width="90" height="90" viewBox="0 0 90 90" fill="none" xmlns="http://www.w3.org/2000/svg">
<path d="M26.742 65.075H63.258C64.261 65.075 65.074 64.262 65.074 63.258V26.742C65.074 25.739 64.261 24.925 63.258 24.925H26.742C25.738 24.925 24.925 25.739 24.925 26.742V63.258C24.926 64.262 25.739 65.075 26.742 65.075ZM28.559 28.558H61.442V61.441H28.559V28.558Z" fill="black"/>
<path d="M88.184 40.73C89.187 40.73 90 39.917 90 38.913C90 37.91 89.187 37.097 88.184 37.097H73.767V28.558H88.184C89.187 28.558 90 27.745 90 26.741C90 25.738 89.187 24.924 88.184 24.924H73.767V18.05C73.767 17.046 72.954 16.233 71.95 16.233H65.075V1.816C65.075 0.813 64.262 0 63.259 0C62.256 0 61.442 0.813 61.442 1.816V16.233H52.903V1.816C52.903 0.813 52.09 0 51.086 0C50.083 0 49.27 0.813 49.27 1.816V16.233H40.731V1.816C40.731 0.813 39.918 0 38.914 0C37.91 0 37.097 0.813 37.097 1.816V16.233H28.559V1.816C28.559 0.813 27.746 0 26.742 0C25.739 0 24.926 0.813 24.926 1.816V16.233H18.051C17.047 16.233 16.234 17.046 16.234 18.05V24.924H1.817C0.814 24.925 0 25.739 0 26.742C0 27.746 0.814 28.559 1.817 28.559H16.234V37.098H1.817C0.814 37.097 0 37.911 0 38.914C0 39.917 0.814 40.731 1.817 40.731H16.234V49.27H1.817C0.814 49.269 0 50.082 0 51.086C0 52.09 0.814 52.903 1.817 52.903H16.234V61.442H1.817C0.814 61.441 0 62.255 0 63.259C0 64.262 0.814 65.075 1.817 65.075H16.234V71.95C16.234 72.953 17.047 73.766 18.051 73.766H24.926V88.183C24.926 89.186 25.739 90 26.743 90C27.747 90 28.56 89.186 28.56 88.183V73.766H37.098V88.183C37.098 89.186 37.911 90 38.915 90C39.919 90 40.732 89.186 40.732 88.183V73.766H49.271V88.183C49.271 89.186 50.084 90 51.087 90C52.091 90 52.904 89.186 52.904 88.183V73.766H61.443V88.183C61.443 89.186 62.256 90 63.26 90C64.263 90 65.076 89.186 65.076 88.183V73.766H71.951C72.954 73.766 73.768 72.952 73.768 71.95V65.075H88.185C89.188 65.075 90.001 64.262 90.001 63.258C90.001 62.255 89.188 61.442 88.185 61.442H73.767V52.903H88.184C89.187 52.903 90 52.09 90 51.086C90 50.082 89.187 49.269 88.184 49.269H73.767V40.73H88.184ZM70.133 70.133H19.867V19.867H70.133V70.133Z" fill="black"/>
</svg>
