<svg width="373" height="373" viewBox="0 0 373 373" fill="none" xmlns="http://www.w3.org/2000/svg">
<path fill-rule="evenodd" clip-rule="evenodd" d="M26.152 372.524H346.515C360.87 372.524 372.524 360.87 372.524 346.515V26.152C372.524 11.797 360.87 0.141998 346.515 0.141998H26.152C11.797 0.141998 0.141998 11.797 0.141998 26.152V346.515C0.141998 360.87 11.797 372.524 26.152 372.524ZM8.476 241.535V346.515C8.476 356.27 16.396 364.191 26.152 364.191H131.131C72.731 346.061 26.604 299.933 8.476 241.535ZM186.333 364.191C88.171 364.191 8.476 284.496 8.476 186.333C8.476 88.171 88.171 8.476 186.333 8.476C284.496 8.476 364.191 88.171 364.191 186.333C364.191 284.496 284.496 364.191 186.333 364.191ZM364.191 241.535C346.061 299.936 299.933 346.063 241.535 364.191H346.515C356.27 364.191 364.191 356.27 364.191 346.515V241.535ZM342.109 329.083C333.935 329.083 327.299 335.719 327.299 343.893C327.299 352.067 333.935 358.703 342.109 358.703C350.283 358.703 356.919 352.067 356.919 343.893C356.919 335.719 350.283 329.083 342.109 329.083ZM28.651 329.083C20.478 329.083 13.842 335.719 13.842 343.893C13.842 352.067 20.478 358.703 28.651 358.703C36.825 358.703 43.461 352.067 43.461 343.893C43.461 335.719 36.825 329.083 28.651 329.083ZM172.703 124.967C171.324 115.969 167.579 94.85 160.197 74.176C153.912 56.576 145.088 39.191 132.52 30.523C131.302 29.682 130.62 28.259 130.73 26.783C130.84 25.307 131.725 24 133.055 23.35C151.699 14.23 180.565 12.103 213.653 18.829C214.747 19.052 215.707 19.705 216.316 20.642C231.867 44.563 245.257 85.654 219.327 131.15C222.083 132.698 224.713 134.446 227.194 136.373C233.962 128.766 246.58 113.749 256.997 96.607C266.702 80.635 274.641 62.829 273.451 47.608C273.335 46.132 274.011 44.706 275.227 43.862C276.442 43.017 278.014 42.88 279.357 43.503C298.187 52.232 318.03 73.305 333.657 103.235C334.175 104.225 334.272 105.382 333.929 106.445C325.225 133.375 302.065 169.301 251.271 178.209C251.634 180.955 251.821 183.756 251.821 186.601C251.821 187.022 251.817 187.442 251.809 187.861C262.204 188.3 281.269 188.541 300.581 185.903C319.098 183.374 337.927 178.316 348.995 167.801C350.068 166.781 351.602 166.408 353.023 166.819C354.445 167.23 355.542 168.365 355.905 169.8C360.993 189.922 357.135 218.608 343.744 249.603C343.301 250.629 342.465 251.434 341.423 251.837C314.816 262.131 271.856 266.78 232.67 232.054C230.436 234.237 228.043 236.256 225.507 238.094C231.403 246.116 243.73 261.967 258.713 276.016C272.345 288.8 288.137 300.233 303.278 302.2C304.745 302.391 306.002 303.346 306.578 304.709C307.155 306.072 306.965 307.639 306.079 308.825C293.662 325.456 268.957 340.538 236.452 349.673C235.377 349.975 234.225 349.833 233.255 349.278C208.07 334.863 176.757 303.629 180.229 249.653C177.281 249.28 174.396 248.705 171.59 247.943C169.342 256.193 163.979 277.679 162.359 300.294C161.024 318.935 162.099 338.402 170.112 351.397C170.889 352.657 170.939 354.234 170.244 355.541C169.549 356.848 168.213 357.688 166.734 357.747C145.996 358.587 118.717 348.909 91.141 329.427C90.228 328.782 89.613 327.798 89.433 326.695C84.854 298.668 89.101 255.948 130.59 224.773C131.231 224.292 133.077 222.949 135.13 221.467C132.959 218.167 131.088 214.654 129.553 210.965C128.711 211.214 127.98 211.446 127.485 211.63C118.353 215.034 94.04 224.728 73.209 238.742C59.822 247.748 47.801 258.482 42.722 270.613C42.15 271.978 40.897 272.937 39.43 273.133C37.963 273.329 36.502 272.732 35.593 271.565C22.831 255.196 14.81 227.385 14.585 193.622C14.577 192.505 15.019 191.431 15.81 190.643C35.991 170.532 73.367 149.026 123.115 164.888C123.848 165.122 125.793 165.872 127.893 166.695C128.8 163.948 129.889 161.284 131.147 158.713C125.04 155.047 104.591 143.24 81.779 135.202C64.153 128.99 45.094 124.886 30.443 129.182C29.023 129.599 27.488 129.23 26.412 128.215C25.335 127.199 24.878 125.689 25.211 124.247C29.879 104.023 46.418 80.269 72.492 58.818C73.355 58.108 74.466 57.774 75.577 57.892C104.438 60.943 145.683 76.926 164.243 127.748C166.973 126.631 169.798 125.699 172.703 124.967ZM342.109 337.416C345.683 337.416 348.585 340.318 348.585 343.893C348.585 347.467 345.683 350.369 342.109 350.369C338.534 350.369 335.632 347.467 335.632 343.893C335.632 340.318 338.534 337.416 342.109 337.416ZM28.651 337.416C32.226 337.416 35.128 340.318 35.128 343.893C35.128 347.467 32.226 350.369 28.651 350.369C25.077 350.369 22.175 347.467 22.175 343.893C22.175 340.318 25.077 337.416 28.651 337.416ZM140.155 228.115C138.102 229.598 136.234 230.956 135.596 231.435C98.204 259.532 93.627 297.798 97.393 323.632C119.773 339.166 141.761 348.027 159.698 349.303C153.814 335.472 152.788 317.278 154.047 299.699C155.748 275.953 161.447 253.412 163.695 245.226C154.574 241.394 146.532 235.496 140.155 228.115ZM218.437 242.542C209.535 247.357 199.358 250.11 188.547 250.156C185.418 298.857 212.946 327.504 235.894 341.166C262.058 333.579 282.794 322.089 295.089 308.967C280.642 304.819 265.868 294.15 253.012 282.095C237.292 267.353 224.403 250.69 218.437 242.542ZM125.801 174.816C123.549 173.928 121.362 173.076 120.583 172.827C75.743 158.531 41.806 177.16 22.937 195.33C23.344 222.568 28.948 245.601 38.357 260.925C44.97 250.049 56.142 240.18 68.558 231.827C90.06 217.362 115.148 207.335 124.575 203.821C125.122 203.617 125.934 203.36 126.87 203.082C125.461 197.827 124.709 192.301 124.709 186.601C124.709 182.574 125.084 178.634 125.801 174.816ZM238.24 225.853C273.559 257.084 312.173 253.717 336.787 244.677C347.384 219.58 351.531 196.239 349.089 178.423C336.765 187.026 319.171 191.775 301.709 194.16C281.614 196.904 261.778 196.629 251.104 196.168C249.427 207.259 244.879 217.414 238.24 225.853ZM188.265 131.378C218.743 131.378 243.488 156.122 243.488 186.601C243.488 217.079 218.743 241.824 188.265 241.824C157.786 241.824 133.042 217.079 133.042 186.601C133.042 156.122 157.786 131.378 188.265 131.378ZM188.265 143.366C164.403 143.366 145.03 162.739 145.03 186.601C145.03 210.463 164.403 229.836 188.265 229.836C212.127 229.836 231.5 210.463 231.5 186.601C231.5 162.739 212.127 143.366 188.265 143.366ZM188.265 151.699C207.527 151.699 223.166 167.338 223.166 186.601C223.166 205.863 207.527 221.502 188.265 221.502C169.002 221.502 153.363 205.863 153.363 186.601C153.363 167.338 169.002 151.699 188.265 151.699ZM249.636 170.033C295.521 162.025 317.012 130.179 325.448 105.532C312.639 81.489 297.129 63.56 281.757 54.229C280.671 69.22 273.271 85.873 264.118 100.934C253.405 118.565 240.435 134.018 233.427 141.9C241.056 149.606 246.73 159.254 249.636 170.033ZM156.712 131.429C140.103 84.956 103.091 69.662 76.429 66.379C55.536 83.861 41.182 102.728 35.214 119.691C50.107 117.669 67.927 121.485 84.549 127.342C107.831 135.546 128.728 147.554 135.295 151.485C140.769 143.251 148.109 136.363 156.712 131.429ZM131.131 8.476H26.152C16.396 8.476 8.476 16.396 8.476 26.152V131.131C26.606 72.731 72.733 26.604 131.131 8.476ZM241.535 8.476C299.936 26.606 346.063 72.733 364.191 131.131V26.152C364.191 16.396 356.27 8.476 346.515 8.476H241.535ZM211.786 127.546C235.521 86.325 224.241 48.984 210.263 26.652C183.523 21.445 159.828 22.19 142.896 28.245C153.851 38.536 162.118 54.776 168.045 71.373C175.574 92.459 179.438 113.994 180.901 123.467C183.317 123.188 185.774 123.045 188.265 123.045C196.571 123.045 204.508 124.641 211.786 127.546ZM28.651 14.026C20.478 14.026 13.842 20.662 13.842 28.836C13.842 37.01 20.478 43.646 28.651 43.646C36.825 43.646 43.461 37.01 43.461 28.836C43.461 20.662 36.825 14.026 28.651 14.026ZM342.109 14.026C333.935 14.026 327.299 20.662 327.299 28.836C327.299 37.01 333.935 43.646 342.109 43.646C350.283 43.646 356.919 37.01 356.919 28.836C356.919 20.662 350.283 14.026 342.109 14.026ZM28.651 22.36C32.226 22.36 35.128 25.262 35.128 28.836C35.128 32.411 32.226 35.313 28.651 35.313C25.077 35.313 22.175 32.411 22.175 28.836C22.175 25.262 25.077 22.36 28.651 22.36ZM342.109 22.36C345.683 22.36 348.585 25.262 348.585 28.836C348.585 32.411 345.683 35.313 342.109 35.313C338.534 35.313 335.632 32.411 335.632 28.836C335.632 25.262 338.534 22.36 342.109 22.36Z" fill="black"/>
</svg>
