<svg xmlns="http://www.w3.org/2000/svg" xmlns:xlink="http://www.w3.org/1999/xlink" xmlns:serif="http://www.serif.com/" viewBox="0 0 417 521.25" version="1.1" xml:space="preserve" style="" x="0px" y="0px" fill-rule="evenodd" clip-rule="evenodd" stroke-linejoin="round" stroke-miterlimit="2"><rect serif:id="Page 18" x="0" y="0" width="416.667" height="416.667" style="" fill="none"/><path d="M48.152,394.524l320.363,0c14.355,0 26.009,-11.654 26.009,-26.009l0,-320.363c0,-14.355 -11.654,-26.01 -26.009,-26.01l-320.363,0c-14.355,0 -26.01,11.655 -26.01,26.01c0,0 0,320.363 0,320.363c0,14.355 11.655,26.009 26.01,26.009Zm-17.676,-130.989l-0,104.98c-0,9.755 7.92,17.676 17.676,17.676l104.979,-0c-58.4,-18.13 -104.527,-64.258 -122.655,-122.656Zm177.857,122.656c-98.162,-0 -177.857,-79.695 -177.857,-177.858c-0,-98.162 79.695,-177.857 177.857,-177.857c98.163,-0 177.858,79.695 177.858,177.857c-0,98.163 -79.695,177.858 -177.858,177.858Zm177.858,-122.656c-18.13,58.401 -64.258,104.528 -122.656,122.656l104.98,-0c9.755,-0 17.676,-7.921 17.676,-17.676l-0,-104.98Zm-22.082,87.548c-8.174,0 -14.81,6.636 -14.81,14.81c-0,8.174 6.636,14.81 14.81,14.81c8.174,-0 14.81,-6.636 14.81,-14.81c-0,-8.174 -6.636,-14.81 -14.81,-14.81Zm-313.458,0c-8.173,0 -14.809,6.636 -14.809,14.81c-0,8.174 6.636,14.81 14.809,14.81c8.174,-0 14.81,-6.636 14.81,-14.81c0,-8.174 -6.636,-14.81 -14.81,-14.81Zm144.052,-204.116c-1.379,-8.998 -5.124,-30.117 -12.506,-50.791c-6.285,-17.6 -15.109,-34.985 -27.677,-43.653c-1.218,-0.841 -1.9,-2.264 -1.79,-3.74c0.11,-1.476 0.995,-2.783 2.325,-3.433c18.644,-9.12 47.51,-11.247 80.598,-4.521c1.094,0.223 2.054,0.876 2.663,1.813c15.551,23.921 28.941,65.012 3.011,110.508c2.756,1.548 5.386,3.296 7.867,5.223c6.768,-7.607 19.386,-22.624 29.803,-39.766c9.705,-15.972 17.644,-33.778 16.454,-48.999c-0.116,-1.476 0.56,-2.902 1.776,-3.746c1.215,-0.845 2.787,-0.982 4.13,-0.359c18.83,8.729 38.673,29.802 54.3,59.732c0.518,0.99 0.615,2.147 0.272,3.21c-8.704,26.93 -31.864,62.856 -82.658,71.764c0.363,2.746 0.55,5.547 0.55,8.392c0,0.421 -0.004,0.841 -0.012,1.26c10.395,0.439 29.46,0.68 48.772,-1.958c18.517,-2.529 37.346,-7.587 48.414,-18.102c1.073,-1.02 2.607,-1.393 4.028,-0.982c1.422,0.411 2.519,1.546 2.882,2.981c5.088,20.122 1.23,48.808 -12.161,79.803c-0.443,1.026 -1.279,1.831 -2.321,2.234c-26.607,10.294 -69.567,14.943 -108.753,-19.783c-2.234,2.183 -4.627,4.202 -7.163,6.04c5.896,8.022 18.223,23.873 33.206,37.922c13.632,12.784 29.424,24.217 44.565,26.184c1.467,0.191 2.724,1.146 3.3,2.509c0.577,1.363 0.387,2.93 -0.499,4.116c-12.417,16.631 -37.122,31.713 -69.627,40.848c-1.075,0.302 -2.227,0.16 -3.197,-0.395c-25.185,-14.415 -56.498,-45.649 -53.026,-99.625c-2.948,-0.373 -5.833,-0.948 -8.639,-1.71c-2.248,8.25 -7.611,29.736 -9.231,52.351c-1.335,18.641 -0.26,38.108 7.753,51.103c0.777,1.26 0.827,2.837 0.132,4.144c-0.695,1.307 -2.031,2.147 -3.51,2.206c-20.738,0.84 -48.017,-8.838 -75.593,-28.32c-0.913,-0.645 -1.528,-1.629 -1.708,-2.732c-4.579,-28.027 -0.332,-70.747 41.157,-101.922c0.641,-0.481 2.487,-1.824 4.54,-3.306c-2.171,-3.3 -4.042,-6.813 -5.577,-10.502c-0.842,0.249 -1.573,0.481 -2.068,0.665c-9.132,3.404 -33.445,13.098 -54.276,27.112c-13.387,9.006 -25.408,19.74 -30.487,31.871c-0.572,1.365 -1.825,2.324 -3.292,2.52c-1.467,0.196 -2.928,-0.401 -3.837,-1.568c-12.762,-16.369 -20.783,-44.18 -21.008,-77.943c-0.008,-1.117 0.434,-2.191 1.225,-2.979c20.181,-20.111 57.557,-41.617 107.305,-25.755c0.733,0.234 2.678,0.984 4.778,1.807c0.907,-2.747 1.996,-5.411 3.254,-7.982c-6.107,-3.666 -26.556,-15.473 -49.368,-23.511c-17.626,-6.212 -36.685,-10.316 -51.336,-6.02c-1.42,0.417 -2.955,0.048 -4.031,-0.967c-1.077,-1.016 -1.534,-2.526 -1.201,-3.968c4.668,-20.224 21.207,-43.978 47.281,-65.429c0.863,-0.71 1.974,-1.044 3.085,-0.926c28.861,3.051 70.106,19.034 88.666,69.856c2.73,-1.117 5.555,-2.049 8.46,-2.781Zm169.406,212.449c3.574,0 6.476,2.902 6.476,6.477c0,3.574 -2.902,6.476 -6.476,6.476c-3.575,0 -6.477,-2.902 -6.477,-6.476c0,-3.575 2.902,-6.477 6.477,-6.477Zm-313.458,0c3.575,0 6.477,2.902 6.477,6.477c-0,3.574 -2.902,6.476 -6.477,6.476c-3.574,0 -6.476,-2.902 -6.476,-6.476c-0,-3.575 2.902,-6.477 6.476,-6.477Zm111.504,-109.301c-2.053,1.483 -3.921,2.841 -4.559,3.32c-37.392,28.097 -41.969,66.363 -38.203,92.197c22.38,15.534 44.368,24.395 62.305,25.671c-5.884,-13.831 -6.91,-32.025 -5.651,-49.604c1.701,-23.746 7.4,-46.287 9.648,-54.473c-9.121,-3.832 -17.163,-9.73 -23.54,-17.111Zm78.282,14.427c-8.902,4.815 -19.079,7.568 -29.89,7.614c-3.129,48.701 24.399,77.348 47.347,91.01c26.164,-7.587 46.9,-19.077 59.195,-32.199c-14.447,-4.148 -29.221,-14.817 -42.077,-26.872c-15.72,-14.742 -28.609,-31.405 -34.575,-39.553Zm-92.636,-67.726c-2.252,-0.888 -4.439,-1.74 -5.218,-1.989c-44.84,-14.296 -78.777,4.333 -97.646,22.503c0.407,27.238 6.011,50.271 15.42,65.595c6.613,-10.876 17.785,-20.745 30.201,-29.098c21.502,-14.465 46.59,-24.492 56.017,-28.006c0.547,-0.204 1.359,-0.461 2.295,-0.739c-1.409,-5.255 -2.161,-10.781 -2.161,-16.481c-0,-4.027 0.375,-7.967 1.092,-11.785Zm112.439,51.037c35.319,31.231 73.933,27.864 98.547,18.824c10.597,-25.097 14.744,-48.438 12.302,-66.254c-12.324,8.603 -29.918,13.352 -47.38,15.737c-20.095,2.744 -39.931,2.469 -50.605,2.008c-1.677,11.091 -6.225,21.246 -12.864,29.685Zm-49.975,-94.475c30.478,-0 55.223,24.744 55.223,55.223c-0,30.478 -24.745,55.223 -55.223,55.223c-30.479,-0 -55.223,-24.745 -55.223,-55.223c-0,-30.479 24.744,-55.223 55.223,-55.223Zm-0,11.988c-23.862,0 -43.235,19.373 -43.235,43.235c-0,23.862 19.373,43.235 43.235,43.235c23.862,-0 43.235,-19.373 43.235,-43.235c-0,-23.862 -19.373,-43.235 -43.235,-43.235Zm-0,8.333c19.262,0 34.901,15.639 34.901,34.902c0,19.262 -15.639,34.901 -34.901,34.901c-19.263,0 -34.902,-15.639 -34.902,-34.901c0,-19.263 15.639,-34.902 34.902,-34.902Zm61.371,18.334c45.885,-8.008 67.376,-39.854 75.812,-64.501c-12.809,-24.043 -28.319,-41.972 -43.691,-51.303c-1.086,14.991 -8.486,31.644 -17.639,46.705c-10.713,17.631 -23.683,33.084 -30.691,40.966c7.629,7.706 13.303,17.354 16.209,28.133Zm-92.924,-38.604c-16.609,-46.473 -53.621,-61.767 -80.283,-65.05c-20.893,17.482 -35.247,36.349 -41.215,53.312c14.893,-2.022 32.713,1.794 49.335,7.651c23.282,8.204 44.179,20.212 50.746,24.143c5.474,-8.234 12.814,-15.122 21.417,-20.056Zm-25.581,-122.953l-104.979,-0c-9.756,-0 -17.676,7.92 -17.676,17.676l-0,104.979c18.13,-58.4 64.257,-104.527 122.655,-122.655Zm110.404,-0c58.401,18.13 104.528,64.257 122.656,122.655l-0,-104.979c-0,-9.756 -7.921,-17.676 -17.676,-17.676l-104.98,-0Zm-29.749,119.07c23.735,-41.221 12.455,-78.562 -1.523,-100.894c-26.74,-5.207 -50.435,-4.462 -67.367,1.593c10.955,10.291 19.222,26.531 25.149,43.128c7.529,21.086 11.393,42.621 12.856,52.094c2.416,-0.279 4.873,-0.422 7.364,-0.422c8.306,-0 16.243,1.596 23.521,4.501Zm-183.135,-113.52c-8.173,0 -14.809,6.636 -14.809,14.81c-0,8.174 6.636,14.81 14.809,14.81c8.174,-0 14.81,-6.636 14.81,-14.81c0,-8.174 -6.636,-14.81 -14.81,-14.81Zm313.458,0c-8.174,0 -14.81,6.636 -14.81,14.81c-0,8.174 6.636,14.81 14.81,14.81c8.174,-0 14.81,-6.636 14.81,-14.81c-0,-8.174 -6.636,-14.81 -14.81,-14.81Zm-313.458,8.334c3.575,-0 6.477,2.902 6.477,6.476c-0,3.575 -2.902,6.477 -6.477,6.477c-3.574,-0 -6.476,-2.902 -6.476,-6.477c-0,-3.574 2.902,-6.476 6.476,-6.476Zm313.458,-0c3.574,-0 6.476,2.902 6.476,6.476c0,3.575 -2.902,6.477 -6.476,6.477c-3.575,-0 -6.477,-2.902 -6.477,-6.477c0,-3.574 2.902,-6.476 6.477,-6.476Z"/></svg>