<svg xmlns="http://www.w3.org/2000/svg" xmlns:xlink="http://www.w3.org/1999/xlink" version="1.1" x="0px" y="0px" viewBox="0 0 512 500" style="enable-background:new 0 0 512 512;" xml:space="preserve"><g><path d="M399.162,31.801H112.838c-13.331,0-24.173,10.842-24.173,24.173v400.034c0,13.331,10.842,24.191,24.173,24.191h43.379   h199.577h43.37c13.331,0,24.173-10.861,24.173-24.191V55.974C423.335,42.643,412.493,31.801,399.162,31.801z M169.474,465.307   l16.963-27.751h14.902v18.307c0,4.104,3.333,7.446,7.437,7.446c4.104,0,7.437-3.342,7.437-7.446v-18.307h17.544v18.307   c0,4.104,3.333,7.446,7.437,7.446s7.437-3.342,7.437-7.446v-18.307h17.553v18.307c0,4.104,3.333,7.446,7.437,7.446   s7.437-3.342,7.437-7.446v-18.307h17.544v18.307c0,4.104,3.333,7.446,7.437,7.446c4.104,0,7.437-3.342,7.437-7.446v-18.307h12.086   l16.963,27.751H169.474z M408.461,456.008c0,5.14-4.168,9.299-9.299,9.299h-39.198l-23.886-39.084   c-1.353-2.198-3.759-3.56-6.347-3.56H182.269c-2.588,0-4.994,1.362-6.347,3.56l-23.878,39.084h-39.206   c-5.131,0-9.299-4.159-9.299-9.299V55.974c0-5.131,4.168-9.299,9.299-9.299h286.325c5.131,0,9.299,4.168,9.299,9.299V456.008z"/><path d="M132.588,418.232c-11.542,0-20.922,9.389-20.922,20.94c0,11.533,9.38,20.922,20.922,20.922s20.931-9.389,20.931-20.922   C153.519,427.622,144.13,418.232,132.588,418.232z M132.588,445.202c-3.333,0-6.048-2.706-6.048-6.03   c0-3.342,2.715-6.048,6.048-6.048c3.342,0,6.057,2.706,6.057,6.048C138.645,442.496,135.93,445.202,132.588,445.202z"/><path d="M378.558,418.232c-11.542,0-20.922,9.389-20.922,20.94c0,11.533,9.38,20.922,20.922,20.922s20.922-9.389,20.922-20.922   C399.48,427.622,390.1,418.232,378.558,418.232z M378.558,445.202c-3.333,0-6.048-2.706-6.048-6.03   c0-3.342,2.715-6.048,6.048-6.048c3.333,0,6.048,2.706,6.048,6.048C384.606,442.496,381.891,445.202,378.558,445.202z"/><path d="M132.588,97.636c11.542,0,20.931-9.38,20.931-20.922s-9.389-20.922-20.931-20.922s-20.922,9.38-20.922,20.922   S121.047,97.636,132.588,97.636z M132.588,70.667c3.342,0,6.057,2.715,6.057,6.048s-2.715,6.048-6.057,6.048   c-3.333,0-6.048-2.715-6.048-6.048S129.255,70.667,132.588,70.667z"/><path d="M378.558,55.792c-11.542,0-20.922,9.38-20.922,20.922s9.38,20.922,20.922,20.922s20.922-9.38,20.922-20.922   S390.1,55.792,378.558,55.792z M378.558,82.762c-3.333,0-6.048-2.715-6.048-6.048s2.715-6.048,6.048-6.048   c3.333,0,6.048,2.715,6.048,6.048S381.891,82.762,378.558,82.762z"/><path d="M136.021,349.055c-1.226-1.58-3.042-2.597-5.031-2.833c-2.007-0.236-3.977,0.345-5.53,1.616l-11.042,8.954   c-1.762,1.417-2.77,3.578-2.751,5.848l0.236,25.353c0.027,3.469,2.47,6.465,5.866,7.192l24.754,5.358   c0.518,0.127,1.044,0.182,1.571,0.182c1.689,0,3.351-0.581,4.686-1.671l10.352-8.409c3.142-2.561,3.669-7.156,1.19-10.334   L136.021,349.055z M142.177,385.251l-15.455-3.342l-0.145-15.819l2.352-1.925l15.174,19.524L142.177,385.251z"/><path d="M256.005,197.969c-18.053,0-32.736,14.684-32.736,32.727c0,18.053,14.684,32.745,32.736,32.745   c18.043,0,32.727-14.693,32.727-32.745C288.732,212.653,274.048,197.969,256.005,197.969z M256.005,248.558   c-9.844,0-17.862-8.018-17.862-17.862s8.018-17.853,17.862-17.853c9.844,0,17.853,8.009,17.853,17.853   S265.848,248.558,256.005,248.558z"/><path d="M256.005,92.896c-75.988,0-137.809,61.813-137.809,137.8c0,35.031,13.628,68.771,37.461,94.209l-9.738,5.933   c-1.816,1.108-3.069,2.924-3.451,5.013s0.145,4.232,1.444,5.902l24.482,31.474c1.308,1.689,3.26,2.724,5.376,2.87   c0.163,0,0.336,0.018,0.499,0.018c1.943,0,3.805-0.763,5.203-2.125l18.722-18.332c18.146,8.414,37.54,12.847,57.81,12.847   c75.988,0,137.8-61.822,137.8-137.809S331.992,92.896,256.005,92.896z M175.022,357.518l-14.239-18.289l86.567-52.523   L175.022,357.518z M256.005,353.613c-16.151,0-31.655-3.207-46.321-9.203l48.083-47.079c5.521-5.412,6.084-13.785,1.335-19.887   s-13.004-7.646-19.614-3.614l-70.814,43.145c-22.612-22.906-35.603-53.987-35.603-86.278c0-67.779,55.147-122.926,122.935-122.926   c67.779,0,122.926,55.147,122.926,122.926S323.783,353.613,256.005,353.613z"/></g></svg>