<?xml version="1.0" encoding="iso-8859-1"?>
<svg fill="#000000" height="800px" width="800px" version="1.1" id="Layer_1" xmlns="http://www.w3.org/2000/svg" xmlns:xlink="http://www.w3.org/1999/xlink" 
	 viewBox="0 0 512 512" xml:space="preserve">
<g>
	<g>
		<g>
			<path d="M503.393,161.684c4.466,0,8.084-3.62,8.084-8.084V56.752c0-15.629-12.716-28.346-28.346-28.346h-13.691V8.084
				c0-4.465-3.618-8.084-8.084-8.084h-178.93c-4.466,0-8.084,3.62-8.084,8.084v20.322H28.869c-15.629,0-28.346,12.716-28.346,28.346
				v21.148v178.93v58.374v129.347v39.101C0.523,499.284,13.24,512,28.869,512h454.26c15.631,0,28.346-12.716,28.346-28.346V178.554
				c0-4.465-3.618-8.084-8.084-8.084c-4.466,0-8.084,3.62-8.084,8.084v305.099c0,6.715-5.463,12.178-12.178,12.178H28.869
				c-6.714,0-12.178-5.463-12.178-12.178v-31.016h20.322c4.465,0,8.084-3.62,8.084-8.084V315.206c0-4.465-3.62-8.084-8.084-8.084
				H16.691v-42.206h20.322c4.465,0,8.084-3.62,8.084-8.084V77.9c0-4.465-3.62-8.084-8.084-8.084H16.691V56.752
				c0-6.714,5.463-12.178,12.178-12.178h253.554h178.931h21.776c6.714,0,12.178,5.463,12.178,12.178V153.6
				C495.309,158.065,498.927,161.684,503.393,161.684z M28.929,323.29v113.179H16.691V323.29H28.929z M28.929,85.985v162.762H16.691
				V85.985H28.929z M453.271,28.406H290.509V16.168h162.762V28.406z"/>
			<path d="M469.439,77.901c0-4.465-3.618-8.084-8.084-8.084h-178.93c-4.466,0-8.084,3.62-8.084,8.084v178.93
				c0,4.465,3.618,8.084,8.084,8.084h178.93c4.466,0,8.084-3.62,8.084-8.084V77.901z M453.271,248.747H290.509V85.985h162.762
				V248.747z"/>
			<path d="M300.412,193.437c0,4.465,3.619,8.084,8.084,8.084h10.576v10.577c0,4.465,3.619,8.084,8.084,8.084h9.701v9.701
				c0,4.465,3.618,8.084,8.084,8.084c4.466,0,8.084-3.62,8.084-8.084v-9.701h10.779v9.701c0,4.465,3.618,8.084,8.084,8.084
				c4.466,0,8.084-3.62,8.084-8.084v-9.701h10.779v9.701c0,4.465,3.618,8.084,8.084,8.084c4.466,0,8.084-3.62,8.084-8.084v-9.701
				h9.701c4.466,0,8.084-3.62,8.084-8.084v-10.577h10.577c4.466,0,8.084-3.62,8.084-8.084s-3.618-8.084-8.084-8.084h-10.577v-10.779
				h10.577c4.466,0,8.084-3.62,8.084-8.084c0-4.465-3.618-8.084-8.084-8.084h-10.577v-10.779h10.577c4.466,0,8.084-3.62,8.084-8.084
				c0-4.465-3.618-8.084-8.084-8.084h-10.577v-8.826c0-4.465-3.619-8.084-8.084-8.084h-9.701v-11.45
				c0-4.465-3.618-8.084-8.084-8.084c-4.466,0-8.084,3.62-8.084,8.084v11.452h-10.779v-11.452c0-4.465-3.618-8.084-8.084-8.084
				c-4.466,0-8.084,3.62-8.084,8.084v11.452h-10.779v-11.452c0-4.465-3.619-8.084-8.084-8.084c-4.466,0-8.084,3.62-8.084,8.084
				v11.452h-9.701c-4.466,0-8.084,3.62-8.084,8.084v8.826h-10.576c-4.466,0-8.084,3.62-8.084,8.084c0,4.465,3.619,8.084,8.084,8.084
				h10.576v10.779h-10.576c-4.466,0-8.084,3.62-8.084,8.084c0,4.465,3.619,8.084,8.084,8.084h10.576v10.779h-10.576v-0.001
				C304.031,185.353,300.412,188.972,300.412,193.437z M335.241,130.717h73.297v73.297h-73.297V130.717z"/>
			<path d="M461.355,368.561c4.466,0,8.084-3.62,8.084-8.084v-45.272c0-4.465-3.618-8.084-8.084-8.084h-24.53v-8.382
				c0-4.465-3.618-8.084-8.084-8.084c-4.466,0-8.084,3.62-8.084,8.084v8.382H238.231c-4.465,0-8.084,3.62-8.084,8.084
				c0,4.465,3.62,8.084,8.084,8.084h182.426v29.103H176.528V323.29h36.91c4.465,0,8.084-3.62,8.084-8.084
				c0-4.465-3.62-8.084-8.084-8.084h-36.91v-8.382c0-4.465-3.62-8.084-8.084-8.084c-4.465,0-8.084,3.62-8.084,8.084v8.382h-24.529
				c-4.465,0-8.084,3.62-8.084,8.084v45.272c0,4.465,3.62,8.084,8.084,8.084h24.529v22.636h-24.529c-4.465,0-8.084,3.62-8.084,8.084
				v45.272c0,4.465,3.62,8.084,8.084,8.084h24.529v7.778c0,4.465,3.62,8.084,8.084,8.084c4.465,0,8.084-3.62,8.084-8.084v-7.778
				h182.427c4.466,0,8.084-3.62,8.084-8.084c0-4.465-3.619-8.084-8.084-8.084H176.528v-29.103h244.129v29.103h-36.91
				c-4.466,0-8.084,3.62-8.084,8.084c0,4.465,3.618,8.084,8.084,8.084h36.91v7.778c0,4.465,3.618,8.084,8.084,8.084
				c4.466,0,8.084-3.62,8.084-8.084v-7.778h24.53c4.466,0,8.084-3.62,8.084-8.084v-45.272c0-4.465-3.619-8.084-8.084-8.084h-24.53
				v-22.636H461.355z M436.825,323.29h16.445v29.103h-16.445V323.29z M160.359,436.469h-16.444v-29.103h16.444V436.469z
				 M160.359,352.393h-16.444V323.29h16.444V352.393z M420.657,391.197H176.528v-22.636h244.129V391.197z M436.825,407.366h16.445
				v29.103h-16.445V407.366z"/>
			<path d="M139.603,256.831c0,4.465,3.62,8.084,8.084,8.084c4.465,0,8.084-3.62,8.084-8.084v-144.55
				c0-4.465-3.62-8.084-8.084-8.084c-4.465,0-8.084,3.62-8.084,8.084V256.831z"/>
			<path d="M147.688,97.011c4.465,0,8.084-3.62,8.084-8.084V77.901c0-4.465-3.62-8.084-8.084-8.084c-4.465,0-8.084,3.62-8.084,8.084
				v11.026C139.603,93.391,143.223,97.011,147.688,97.011z"/>
			<path d="M204.342,256.831c0,4.465,3.62,8.084,8.084,8.084c4.465,0,8.084-3.62,8.084-8.084v-144.55
				c0-4.465-3.62-8.084-8.084-8.084c-4.465,0-8.084,3.62-8.084,8.084V256.831z"/>
			<path d="M212.426,97.011c4.465,0,8.084-3.62,8.084-8.084V77.901c0-4.465-3.62-8.084-8.084-8.084c-4.465,0-8.084,3.62-8.084,8.084
				v11.026C204.342,93.391,207.961,97.011,212.426,97.011z"/>
			<path d="M180.057,230.535c4.465,0,8.084-3.62,8.084-8.084V77.901c0-4.465-3.62-8.084-8.084-8.084
				c-4.465,0-8.084,3.62-8.084,8.084v144.55C171.973,226.915,175.592,230.535,180.057,230.535z"/>
			<path d="M171.973,256.831c0,4.465,3.62,8.084,8.084,8.084c4.465,0,8.084-3.62,8.084-8.084v-11.026
				c0-4.465-3.62-8.084-8.084-8.084c-4.465,0-8.084,3.62-8.084,8.084V256.831z"/>
			<path d="M244.795,230.535c4.465,0,8.084-3.62,8.084-8.084V77.901c0-4.465-3.62-8.084-8.084-8.084s-8.084,3.62-8.084,8.084v144.55
				C236.711,226.915,240.331,230.535,244.795,230.535z"/>
			<path d="M236.711,256.831c0,4.465,3.62,8.084,8.084,8.084s8.084-3.62,8.084-8.084v-11.026c0-4.465-3.62-8.084-8.084-8.084
				s-8.084,3.62-8.084,8.084V256.831z"/>
			<path d="M371.89,142.596c-13.175,0-23.894,10.719-23.894,23.894c0,13.175,10.719,23.894,23.894,23.894
				c13.175,0,23.893-10.719,23.893-23.894C395.782,153.314,385.065,142.596,371.89,142.596z M371.89,174.216
				c-4.26,0-7.725-3.465-7.725-7.725c0-4.26,3.465-7.725,7.725-7.725c4.259,0,7.724,3.465,7.724,7.725
				C379.614,170.75,376.149,174.216,371.89,174.216z"/>
		</g>
	</g>
</g>
</svg>