<svg xmlns="http://www.w3.org/2000/svg" viewBox="0 0 65 60" x="0px" y="0px"><g data-name="Layer 3"><path d="M62,11H2a1,1,0,0,0-1,1V52a1,1,0,0,0,1,1H62a1,1,0,0,0,1-1V12A1,1,0,0,0,62,11ZM61,51H3V13H61Z"/><path d="M58,40H46a1,1,0,0,0-1,1v5a1,1,0,0,0,1,1H58a1,1,0,0,0,1-1V41A1,1,0,0,0,58,40ZM47,42h4v3H47Zm10,3H53V42h4Z"/><path d="M6.62,46.92A1,1,0,0,0,7,47H35a1,1,0,0,0,.38-.08,1,1,0,0,0,.54-.54A1,1,0,0,0,36,46V18a1,1,0,0,0-.08-.38,1,1,0,0,0-.54-.54A1,1,0,0,0,35,17H7a1,1,0,0,0-.38.08,1,1,0,0,0-.54.54A1,1,0,0,0,6,18V46a1,1,0,0,0,.08.38A1,1,0,0,0,6.62,46.92ZM9.41,45l1.73-1.72A15.27,15.27,0,0,0,13.55,45ZM16,32a5,5,0,0,1,.83-2.75L19.59,32l-2.76,2.75A5,5,0,0,1,16,32Zm10,0a5,5,0,0,1-.83,2.75L22.41,32l2.76-2.75A5,5,0,0,1,26,32Zm-2.25,4.17a5,5,0,0,1-5.5,0L21,33.41ZM21,30.59l-2.75-2.76a5,5,0,0,1,5.5,0Zm-4.18,7a6.94,6.94,0,0,0,8.36,0L26.61,39a9,9,0,0,1-11.22,0Zm9.78-1.42a6.94,6.94,0,0,0,0-8.36L28,26.39a9,9,0,0,1,0,11.22ZM25.18,26.4a6.94,6.94,0,0,0-8.36,0L15.39,25a9,9,0,0,1,11.22,0ZM15.4,27.82a6.94,6.94,0,0,0,0,8.36L14,37.61a9,9,0,0,1,0-11.22ZM14,40.45a11,11,0,0,0,14.06,0l1.42,1.41a12.94,12.94,0,0,1-16.9,0ZM29.45,39a11,11,0,0,0,0-14.06l1.41-1.42a12.94,12.94,0,0,1,0,16.9ZM28,23.55a11,11,0,0,0-14.06,0l-1.42-1.41a12.94,12.94,0,0,1,16.9,0ZM12.55,25a11,11,0,0,0,0,14.06l-1.41,1.42a12.94,12.94,0,0,1,0-16.9ZM30.86,43.28,32.59,45H28.45A15.27,15.27,0,0,0,30.86,43.28Zm3.14.31-1.72-1.73A15.27,15.27,0,0,0,34,39.45ZM32.28,22.14,34,20.41v4.14A15.27,15.27,0,0,0,32.28,22.14ZM32.59,19l-1.73,1.72A15.27,15.27,0,0,0,28.45,19ZM11.14,20.72,9.41,19h4.14A15.27,15.27,0,0,0,11.14,20.72ZM8,20.41l1.72,1.73A15.27,15.27,0,0,0,8,24.55ZM9.72,41.86,8,43.59V39.45A15.27,15.27,0,0,0,9.72,41.86Z"/><path d="M41.11,31.45A1,1,0,0,0,42,32H56a1,1,0,0,0,.89-.55l3-6a1,1,0,0,0,0-.84l-3-7A1,1,0,0,0,56,17H42a1,1,0,0,0-.92.61l-3,7a1,1,0,0,0,0,.84ZM42.66,19H55.34l2.56,6-2.52,5H42.62L40.1,25Z"/><path d="M45,25a1,1,0,0,0,1-1V21a1,1,0,0,0-2,0v3A1,1,0,0,0,45,25Z"/><path d="M53,25a1,1,0,0,0,1-1V21a1,1,0,0,0-2,0v3A1,1,0,0,0,53,25Z"/><path d="M49,29a1,1,0,0,0,1-1V26a1,1,0,0,0-2,0v2A1,1,0,0,0,49,29Z"/></g></svg>