<svg width="100" height="50" viewBox="0 0 100 100" fill="none" xmlns="http://www.w3.org/2000/svg">
<path d="M81.78 37.36H70.55C70.2052 37.36 69.8746 37.497 69.6308 37.7408C69.387 37.9846 69.25 38.3152 69.25 38.66V53.78C69.2526 54.123 69.3908 54.4511 69.6343 54.6928C69.8778 54.9344 70.2069 55.07 70.55 55.07H81.78C82.1221 55.07 82.4502 54.9341 82.6922 54.6922C82.9341 54.4502 83.07 54.1221 83.07 53.78V38.66C83.07 38.3169 82.9344 37.9878 82.6928 37.7443C82.4511 37.5008 82.123 37.3626 81.78 37.36ZM79.62 51.62H72.71V40.82H79.62V51.62Z" fill="black"/>
<path d="M53.26 55.07H64.5C64.6694 55.07 64.8372 55.0366 64.9937 54.9718C65.1502 54.907 65.2924 54.812 65.4122 54.6922C65.532 54.5724 65.627 54.4302 65.6918 54.2737C65.7566 54.1172 65.79 53.9494 65.79 53.78V38.66C65.79 38.3169 65.6544 37.9878 65.4128 37.7443C65.1712 37.5008 64.8431 37.3626 64.5 37.36H53.26C52.9222 37.3704 52.6017 37.5119 52.3665 37.7546C52.1313 37.9973 51.9999 38.322 52 38.66V53.78C51.9999 54.117 52.1317 54.4407 52.3672 54.6817C52.6026 54.9228 52.9231 55.0622 53.26 55.07ZM55.42 40.82H62.34V51.62H55.42V40.82ZM36 55.07H47.21C47.5531 55.07 47.8822 54.9344 48.1257 54.6928C48.3692 54.4511 48.5074 54.1231 48.51 53.78V38.66C48.51 38.3152 48.373 37.9846 48.1292 37.7408C47.8855 37.497 47.5548 37.36 47.21 37.36H36C35.657 37.3626 35.3289 37.5008 35.0872 37.7443C34.8456 37.9878 34.71 38.3169 34.71 38.66V53.78C34.71 54.1221 34.8459 54.4503 35.0878 54.6922C35.3298 54.9341 35.6579 55.07 36 55.07ZM38.16 40.82H45.07V51.62H38.14L38.16 40.82ZM18.7 55.07H29.93C30.2731 55.07 30.6022 54.9344 30.8457 54.6928C31.0892 54.4511 31.2274 54.1231 31.23 53.78V38.66C31.23 38.3152 31.093 37.9846 30.8493 37.7408C30.6055 37.497 30.2748 37.36 29.93 37.36H18.7C18.3552 37.36 18.0246 37.497 17.7808 37.7408C17.537 37.9846 17.4 38.3152 17.4 38.66V53.78C17.4027 54.1231 17.5408 54.4511 17.7843 54.6928C18.0278 54.9344 18.357 55.07 18.7 55.07ZM20.86 40.82H27.77V51.62H20.86V40.82ZM94.74 42.54V29.15C94.74 28.8052 94.6031 28.4746 94.3593 28.2308C94.1155 27.987 93.7848 27.85 93.44 27.85H7.00001C6.65523 27.85 6.32457 27.987 6.08077 28.2308C5.83698 28.4746 5.70001 28.8052 5.70001 29.15V42.54C6.7317 42.54 7.72114 42.9498 8.45066 43.6794C9.18017 44.4089 9.59001 45.3983 9.59001 46.43C9.59001 47.4617 9.18017 48.4511 8.45066 49.1807C7.72114 49.9102 6.7317 50.32 5.70001 50.32V63.32C5.70001 64.04 6.28001 64.62 8.00001 64.62H13.75V71.91C13.75 72.42 14.33 72.83 15.04 72.83H61.9C62.62 72.83 63.2 72.42 63.2 71.91V64.58H68.2V71.87C68.2 72.38 68.78 72.79 69.5 72.79H88.69C89.41 72.79 89.99 72.38 89.99 71.87V64.58H94.44C94.16 64.58 94.74 64 94.74 63.28V50.28C93.7083 50.28 92.7189 49.8702 91.9894 49.1406C91.2599 48.4111 90.85 47.4217 90.85 46.39C90.85 45.3583 91.2599 44.3689 91.9894 43.6394C92.7189 42.9098 93.7083 42.5 94.74 42.5V42.54ZM23.08 69.33H18V64.58H23.12L23.08 69.33ZM32.08 69.33H27V64.58H32.12L32.08 69.33ZM41.13 69.33H35.82V64.58H41.17L41.13 69.33ZM50 69.33H44.88V64.58H50V69.33ZM59 69.33H54V64.58H59V69.33ZM77 69.33H71.92V64.58H77V69.33ZM86 69.33H80.8V64.58H86V69.33ZM91.28 40C90.0944 40.6219 89.1014 41.5563 88.4086 42.7021C87.7159 43.8478 87.3496 45.1611 87.3496 46.5C87.3496 47.8389 87.7159 49.1523 88.4086 50.298C89.1014 51.4437 90.0944 52.3781 91.28 53V61.21H9.20001V52.91C10.3828 52.2857 11.3728 51.3504 12.0634 50.205C12.754 49.0596 13.1189 47.7475 13.1189 46.41C13.1189 45.0725 12.754 43.7604 12.0634 42.615C11.3728 41.4696 10.3828 40.5344 9.20001 39.91V31.31H91.28V40Z" fill="black"/>
</svg>
