<svg width="149" height="149" viewBox="0 0 334 149" fill="none" xmlns="http://www.w3.org/2000/svg">
<path d="M285.3 31.383H243.187C241.894 31.383 240.655 31.8351 239.74 32.6396C238.826 33.4442 238.312 34.5352 238.312 35.673V85.569C238.322 86.7009 238.84 87.7836 239.754 88.5812C240.667 89.3785 241.901 89.826 243.187 89.826H285.3C286.583 89.826 287.813 89.3775 288.721 88.5793C289.628 87.7807 290.137 86.6979 290.137 85.569V35.673C290.137 34.5408 289.629 33.4547 288.723 32.6512C287.817 31.8476 286.586 31.3916 285.3 31.383ZM277.2 78.441H251.287V42.801H277.2V78.441Z" fill="black"/>
<path d="M178.35 89.826H220.5C221.135 89.826 221.764 89.7158 222.351 89.5019C222.938 89.2881 223.471 88.9746 223.921 88.5793C224.37 88.1839 224.726 87.7147 224.969 87.1982C225.212 86.6818 225.337 86.128 225.337 85.569V35.673C225.337 34.5408 224.829 33.4547 223.923 32.6512C223.017 31.8476 221.787 31.3916 220.5 31.383H178.35C177.083 31.4173 175.881 31.8843 174.999 32.6852C174.117 33.4861 173.625 34.5576 173.625 35.673V85.569C173.625 86.6811 174.119 87.7493 175.002 88.5446C175.885 89.3402 177.087 89.8003 178.35 89.826ZM186.45 42.801H212.4V78.441H186.45V42.801ZM113.625 89.826H155.662C156.949 89.826 158.183 89.3785 159.096 88.5812C160.009 87.7836 160.528 86.7012 160.537 85.569V35.673C160.537 34.5352 160.024 33.4442 159.109 32.6396C158.196 31.8351 156.955 31.383 155.662 31.383H113.625C112.339 31.3916 111.108 31.8476 110.202 32.6512C109.296 33.4547 108.787 34.5408 108.787 35.673V85.569C108.787 86.6979 109.297 87.781 110.204 88.5793C111.112 89.3775 112.342 89.826 113.625 89.826ZM121.725 42.801H147.637V78.441H121.65L121.725 42.801ZM48.75 89.826H90.8625C92.1491 89.826 93.3832 89.3785 94.2963 88.5812C95.2095 87.7836 95.7277 86.7012 95.7375 85.569V35.673C95.7375 34.5352 95.2237 33.4442 94.3098 32.6396C93.3956 31.8351 92.1555 31.383 90.8625 31.383H48.75C47.457 31.383 46.2172 31.8351 45.303 32.6396C44.3887 33.4442 43.875 34.5352 43.875 35.673V85.569C43.8851 86.7012 44.403 87.7836 45.3161 88.5812C46.2292 89.3785 47.4637 89.826 48.75 89.826ZM56.85 42.801H82.7625V78.441H56.85V42.801ZM333.9 48.477V4.29C333.9 3.15216 333.387 2.06118 332.472 1.25664C331.558 0.452101 330.318 0 329.025 0H4.875C3.58208 0 2.3421 0.452101 1.42785 1.25664C0.513638 2.06118 0 3.15216 0 4.29V48.477C3.86884 48.477 7.57924 49.8293 10.3149 52.237C13.0506 54.6444 14.5875 57.9094 14.5875 61.314C14.5875 64.7186 13.0506 67.9836 10.3149 70.3913C7.57924 72.7987 3.86884 74.151 0 74.151V117.051C0 119.427 2.175 121.341 8.625 121.341H30.1875V145.398C30.1875 147.081 32.3625 148.434 35.025 148.434H210.75C213.45 148.434 215.625 147.081 215.625 145.398V121.209H234.375V145.266C234.375 146.949 236.55 148.302 239.25 148.302H311.212C313.912 148.302 316.087 146.949 316.087 145.266V121.209H332.775C331.725 121.209 333.9 119.295 333.9 116.919V74.019C330.031 74.019 326.321 72.6667 323.585 70.259C320.85 67.8516 319.312 64.5866 319.312 61.182C319.312 57.7774 320.85 54.5124 323.585 52.105C326.321 49.6973 330.031 48.345 333.9 48.345V48.477ZM65.175 136.884H46.125V121.209H65.325L65.175 136.884ZM98.925 136.884H79.875V121.209H99.075L98.925 136.884ZM132.862 136.884H112.95V121.209H133.012L132.862 136.884ZM166.125 136.884H146.925V121.209H166.125V136.884ZM199.875 136.884H181.125V121.209H199.875V136.884ZM267.375 136.884H248.325V121.209H267.375V136.884ZM301.125 136.884H281.625V121.209H301.125V136.884ZM320.925 40.095C316.479 42.1473 312.755 45.2308 310.157 49.0119C307.56 52.7927 306.186 57.1266 306.186 61.545C306.186 65.9634 307.56 70.2976 310.157 74.0784C312.755 77.8592 316.479 80.9427 320.925 82.995V110.088H13.125V82.698C17.5605 80.6378 21.273 77.5513 23.8627 73.7715C26.4525 69.9917 27.8208 65.6618 27.8208 61.248C27.8208 56.8343 26.4525 52.5043 23.8627 48.7245C21.273 44.9447 17.5605 41.8585 13.125 39.798V11.418H320.925V40.095Z" fill="black"/>
</svg>
