<svg width="480" height="280" viewBox="0 0 480 280" fill="none" xmlns="http://www.w3.org/2000/svg">
<path d="M472 1.52588e-05H64C68.418 1.52588e-05 66.5469 1.52588e-05 64 1.52588e-05C59.582 1.52588e-05 50.5 0.582 50.5 5C50.5 9.418 59.582 1.52588e-05 64 1.52588e-05H40C35.582 1.52588e-05 32 3.58202 32 8.00002V40H8C3.582 40 0 43.582 0 48V112C0 116.418 3.582 120 8 120H32V144H8C3.582 144 0 147.582 0 152V184C0 188.418 3.582 192 8 192H32V232C32 236.418 35.582 240 40 240H64V272C64 276.418 67.582 280 72 280H288C292.418 280 296 276.418 296 272V240H472C476.418 240 480 236.418 480 232V8.00002C480 3.58202 476.418 1.52588e-05 472 1.52588e-05ZM32 176H16V160H32V176ZM32 104H16V56H32V104ZM64 224H48V16H64V224ZM280 264H272V256C272 251.582 268.418 248 264 248C259.582 248 256 251.582 256 256V264H248V256C248 251.582 244.418 248 240 248C235.582 248 232 251.582 232 256V264H224V256C224 251.582 220.418 248 216 248C211.582 248 208 251.582 208 256V264H200V256C200 251.582 196.418 248 192 248C187.582 248 184 251.582 184 256V264H176V256C176 251.582 172.418 248 168 248C163.582 248 160 251.582 160 256V264H152V256C152 251.582 148.418 248 144 248C139.582 248 136 251.582 136 256V264H128V256C128 251.582 124.418 248 120 248C115.582 248 112 251.582 112 256V264H104V256C104 251.582 100.418 248 96 248C91.582 248 88 251.582 88 256V264H80V240H280V264ZM464 224H80V16H464V224Z" fill="black"/>
<path d="M176 208C224.523 208 264 168.523 264 120C264 71.477 224.523 32 176 32C127.477 32 88 71.477 88 120C88 168.523 127.477 208 176 208ZM151.18 52.411C148.762 56.158 146.704 60.443 145.419 65.27C142.403 76.595 144.151 88.443 150.602 100.565C148.865 102.83 147.425 105.332 146.338 108.014C138.625 105.167 133.003 100.826 129.603 95.036C123.589 84.797 125.513 72.43 126.579 67.712C133.601 61.073 141.942 55.814 151.18 52.411ZM206.208 54.667C201.787 55.625 197.239 57.234 192.859 59.806C182.838 65.692 175.769 75.259 171.784 88.286C168.882 88.67 166.099 89.436 163.495 90.546C160.045 83.061 159.148 76.001 160.854 69.49C163.859 58.019 174.117 50.569 178.09 48.053C188.105 48.341 197.612 50.677 206.208 54.667ZM145.791 185.333C150.213 184.375 154.761 182.766 159.14 180.194C169.161 174.308 176.23 164.741 180.215 151.714C183.117 151.33 185.9 150.564 188.504 149.454C191.954 156.939 192.851 163.999 191.145 170.51C188.14 181.981 177.882 189.431 173.909 191.947C163.895 191.659 154.387 189.323 145.791 185.333ZM176 104C184.822 104 192 111.178 192 120C192 128.822 184.822 136 176 136C167.178 136 160 128.822 160 120C160 111.178 167.178 104 176 104ZM201.398 139.435C203.136 137.168 204.577 134.664 205.665 131.98C213.379 134.829 218.997 139.174 222.398 144.963C228.412 155.202 226.488 167.569 225.422 172.287C218.399 178.929 210.056 184.188 200.817 187.591C203.236 183.842 205.296 179.559 206.582 174.73C209.597 163.405 207.849 151.556 201.398 139.435ZM236.193 136.859C230.307 126.838 220.74 119.769 207.713 115.784C207.329 112.882 206.563 110.099 205.453 107.494C212.938 104.043 219.998 103.146 226.509 104.853C237.98 107.858 245.43 118.116 247.946 122.088C247.658 132.103 245.323 141.608 241.333 150.203C240.376 145.785 238.765 141.237 236.193 136.859ZM230.729 89.419C219.402 86.405 207.555 88.152 195.434 94.602C193.168 92.864 190.663 91.423 187.979 90.335C190.828 82.621 195.173 77.003 200.962 73.602C211.2 67.59 223.568 69.513 228.286 70.579C234.926 77.6 240.184 85.941 243.588 95.178C239.841 92.761 235.556 90.704 230.729 89.419ZM115.807 103.141C121.693 113.162 131.26 120.231 144.287 124.216C144.671 127.118 145.437 129.901 146.547 132.506C139.062 135.957 132.002 136.855 125.491 135.147C114.031 132.145 106.585 121.905 104.054 117.909C104.342 107.893 106.678 98.386 110.669 89.79C111.627 94.211 113.234 98.761 115.807 103.141ZM108.412 144.822C112.158 147.239 116.443 149.295 121.27 150.581C124.866 151.538 128.511 152.016 132.204 152.016C140.143 152.016 148.291 149.802 156.566 145.399C158.832 147.137 161.336 148.577 164.021 149.665C161.172 157.379 156.827 162.997 151.038 166.398C140.801 172.412 128.433 170.488 123.715 169.422C117.073 162.4 111.815 154.06 108.412 144.822Z" fill="black"/>
<path d="M368 208C416.523 208 456 168.523 456 120C456 71.477 416.523 32 368 32C319.477 32 280 71.477 280 120C280 168.523 319.477 208 368 208ZM343.199 52.404C340.776 56.156 338.706 60.436 337.419 65.271C334.403 76.596 336.151 88.444 342.602 100.566C340.864 102.832 339.424 105.335 338.336 108.019C330.623 105.171 325.003 100.828 321.602 95.038C315.588 84.799 317.512 72.432 318.578 67.714C325.606 61.068 333.954 55.807 343.199 52.404ZM368 104C376.822 104 384 111.178 384 120C384 128.822 376.822 136 368 136C359.178 136 352 128.822 352 120C352 111.178 359.178 104 368 104ZM372.216 151.713C375.118 151.329 377.901 150.563 380.505 149.453C383.955 156.938 384.852 163.998 383.146 170.509C380.141 181.98 369.883 189.43 365.91 191.946C355.894 191.658 346.387 189.322 337.791 185.332C342.213 184.374 346.761 182.765 351.14 180.193C361.161 174.307 368.23 164.74 372.216 151.713ZM393.398 139.435C395.136 137.168 396.577 134.664 397.665 131.98C405.379 134.829 410.997 139.174 414.398 144.963C420.412 155.202 418.488 167.569 417.422 172.287C410.395 178.933 402.046 184.195 392.799 187.598C395.223 183.846 397.293 179.566 398.581 174.73C401.597 163.405 399.849 151.556 393.398 139.435ZM428.193 136.859C422.307 126.838 412.74 119.769 399.713 115.784C399.329 112.882 398.563 110.099 397.453 107.494C404.938 104.043 411.997 103.146 418.509 104.853C429.98 107.858 437.43 118.116 439.946 122.088C439.658 132.103 437.323 141.608 433.333 150.203C432.376 145.785 430.765 141.237 428.193 136.859ZM363.784 88.286C360.885 88.67 358.105 89.434 355.502 90.543C352.05 83.059 351.148 76 352.853 69.49C355.858 58.019 366.116 50.569 370.089 48.053C380.107 48.341 389.616 50.678 398.214 54.67C393.791 55.628 389.241 57.233 384.86 59.807C374.839 65.693 367.77 75.26 363.784 88.286ZM307.807 103.141C313.693 113.162 323.26 120.231 336.287 124.216C336.671 127.118 337.437 129.901 338.547 132.506C331.062 135.957 324.003 136.855 317.491 135.147C306.031 132.145 298.585 121.905 296.054 117.909C296.342 107.894 298.678 98.388 302.668 89.794C303.625 94.213 305.234 98.762 307.807 103.141ZM313.271 150.581C316.867 151.538 320.512 152.016 324.205 152.016C332.144 152.016 340.292 149.802 348.567 145.399C350.833 147.137 353.337 148.577 356.022 149.665C353.173 157.379 348.828 162.997 343.039 166.398C332.802 172.412 320.434 170.488 315.716 169.422C309.075 162.4 303.816 154.058 300.413 144.819C304.158 147.237 308.443 149.295 313.271 150.581ZM435.599 95.206C431.846 92.781 427.567 90.708 422.73 89.419C411.403 86.405 399.556 88.152 387.435 94.602C385.169 92.864 382.664 91.423 379.98 90.335C382.829 82.621 387.174 77.003 392.963 73.602C403.202 67.589 415.569 69.513 420.287 70.579C426.934 77.607 432.196 85.957 435.599 95.206Z" fill="black"/>
<path d="M448.02 40C452.439 40 456.02 36.418 456.02 32C456.02 27.582 452.439 24 448.02 24H448.01C443.592 24 440.015 27.582 440.015 32C440.015 36.418 443.602 40 448.02 40Z" fill="black"/>
<path d="M448.02 200H448.01C443.592 200 440.015 203.582 440.015 208C440.015 212.418 443.602 216 448.02 216C452.439 216 456.02 212.418 456.02 208C456.02 203.582 452.438 200 448.02 200Z" fill="black"/>
<path d="M256.02 40C260.439 40 264.02 36.418 264.02 32C264.02 27.582 260.439 24 256.02 24H256.01C251.592 24 248.015 27.582 248.015 32C248.015 36.418 251.602 40 256.02 40Z" fill="black"/>
<path d="M256.02 200H256.01C251.592 200 248.015 203.582 248.015 208C248.015 212.418 251.602 216 256.02 216C260.439 216 264.02 212.418 264.02 208C264.02 203.582 260.438 200 256.02 200Z" fill="black"/>
</svg>
