<?xml version="1.0" encoding="iso-8859-1"?>
<!DOCTYPE svg PUBLIC "-//W3C//DTD SVG 1.1//EN" "http://www.w3.org/Graphics/SVG/1.1/DTD/svg11.dtd">
<svg fill="#000000" height="800px" width="800px" version="1.1" id="Capa_1" xmlns="http://www.w3.org/2000/svg" xmlns:xlink="http://www.w3.org/1999/xlink" 
	 viewBox="0 0 489.708 489.708" xml:space="preserve">
<path d="M95.246,418.534h294.476c2.761,0,5,2.239,5,5s-2.239,5-5,5H95.246c-2.761,0-5-2.239-5-5S92.484,418.534,95.246,418.534z
	 M389.721,437.03H95.246c-2.761,0-5,2.239-5,5s2.239,5,5,5h294.476c2.761,0,5-2.239,5-5S392.482,437.03,389.721,437.03z M443.354,5
	v479.708c0,2.761-2.239,5-5,5H100.969c-25.194,0-54.615-15.139-54.615-57.804V45.153C46.354,20.256,66.61,0,91.507,0h346.847
	C441.115,0,443.354,2.239,443.354,5z M433.354,479.708v-72.766h-15.79v54.922c0,2.761-2.239,5-5,5H102.733
	c-19.277,0-34.961-15.684-34.961-34.961c0-19.278,15.684-34.961,34.961-34.961h288.413h21.418h20.79v-10.396H94.287
	c-5.577,0-12.192,2.511-18.628,7.071c-0.877,0.622-1.887,0.921-2.886,0.921c-1.567,0-3.109-0.734-4.084-2.11
	c-1.597-2.253-1.064-5.374,1.189-6.97c8.111-5.747,16.78-8.912,24.41-8.912h1.683v-12.229c0-2.761,2.239-5,5-5s5,2.239,5,5v12.229
	h327.385V10H105.969v324.299c0,2.761-2.239,5-5,5s-5-2.239-5-5V10h-4.462c-19.384,0-35.153,15.77-35.153,35.153v386.75
	c0,45.5,37.165,47.804,44.615,47.804H433.354z M102.733,406.942c-13.764,0-24.961,11.198-24.961,24.961s11.197,24.961,24.961,24.961
	h304.831v-49.922h-16.418H102.733z M166.865,153.203c1.364-4.198,5.097-6.91,9.511-6.91h59.656l18.435-56.737
	c1.364-4.198,5.097-6.91,9.511-6.91c4.413,0,8.146,2.712,9.511,6.91l18.435,56.737h59.657c4.414,0,8.146,2.712,9.511,6.91
	c1.364,4.197-0.062,8.586-3.633,11.18l-48.263,35.065l18.435,56.737c1.003,3.087,0.499,6.343-1.383,8.933
	c-1.902,2.618-4.947,4.18-8.145,4.18c-2.094,0-4.121-0.668-5.861-1.933L263.978,232.3l-48.263,35.065
	c-1.74,1.264-3.766,1.933-5.86,1.933c-3.198,0-6.243-1.562-8.145-4.179c-1.882-2.59-2.386-5.846-1.383-8.934l18.435-56.737
	l-48.263-35.065C166.927,161.789,165.501,157.4,166.865,153.203z M176.384,156.293l48.255,35.065
	c3.516,2.554,4.976,7.047,3.633,11.18l-18.433,56.729L258.1,224.21c1.72-1.25,3.752-1.91,5.878-1.91s4.158,0.66,5.877,1.909
	l48.258,35.062l-18.429-56.733c-1.343-4.133,0.117-8.626,3.633-11.18l48.256-35.061l-59.65-0.004c-4.346,0-8.167-2.777-9.511-6.91
	l-18.432-56.73l-18.438,56.729c-1.343,4.133-5.165,6.91-9.511,6.91H176.384z"/>
</svg>