<svg xmlns="http://www.w3.org/2000/svg" data-name="Layer 3" viewBox="0 0 64 80" x="0px" y="0px"><path d="M55.651,49.066l-1.39-2.78a49.93,49.93,0,0,1-2.329-5.467,10.983,10.983,0,0,0-3.394-20.7A16.979,16.979,0,0,0,37,7.766V6A5,5,0,0,0,27,6V7.753A17.028,17.028,0,0,0,15,24,50.085,50.085,0,0,1,9.739,46.286l-1.39,2.78A3.993,3.993,0,0,0,9,57H25.08a6.991,6.991,0,0,0,13.84,0H55a3.993,3.993,0,0,0,.651-7.934ZM56,31a9,9,0,1,1-9-9A9.011,9.011,0,0,1,56,31ZM29,6a3,3,0,0,1,6,0V7.265a16.62,16.62,0,0,0-6,.016ZM17,24a15,15,0,0,1,29.464-3.973,10.992,10.992,0,1,0,3.607,21.528,52.22,52.22,0,0,0,2.4,5.625l.91,1.82H10.618l.91-1.82A52.091,52.091,0,0,0,17,24ZM32,61a5.009,5.009,0,0,1-4.9-4h9.8A5.009,5.009,0,0,1,32,61Zm23-6H9a2,2,0,0,1,0-4H55a2,2,0,0,1,0,4Z"/><path d="M44,26.82a2.788,2.788,0,0,0,.055.553l.768,3.843h0a2.22,2.22,0,0,0,4.354,0l.769-3.844A2.823,2.823,0,0,0,47.18,24h-.36A2.823,2.823,0,0,0,44,26.82Zm4,0a.775.775,0,0,1-.016.16l-.768,3.843a.229.229,0,0,1-.432,0l-.768-3.842A.792.792,0,0,1,46,26.82a.821.821,0,0,1,.82-.82h.36A.821.821,0,0,1,48,26.82Z"/><circle cx="47" cy="36" r="2"/></svg>