<?xml version="1.0" encoding="utf-8"?>
<svg style='margin-left:3px' width="800px" height="800px" viewBox="0 0 24 24" fill="none" xmlns="http://www.w3.org/2000/svg">
<path fill-rule="evenodd" clip-rule="evenodd" d="M8.397 2.481a2.25 2.25 0 012.206 0l5 2.812a2.25 2.25 0 011.147 1.962V16a2.25 2.25 0 01-2.25 2.25h-1.25V13a2.75 2.75 0 00-2.75-2.75h-2A2.75 2.75 0 005.75 13v5.25H4.5A2.25 2.25 0 012.25 16V7.255a2.25 2.25 0 011.147-1.962l5-2.812zM11.75 18.25h-4.5V13c0-.69.56-1.25 1.25-1.25h2c.69 0 1.25.56 1.25 1.25v5.25zm-6 1.5H4.5A3.75 3.75 0 01.75 16V7.255a3.75 3.75 0 011.912-3.269l5-2.812a3.75 3.75 0 013.676 0l5 2.812a3.75 3.75 0 011.912 3.269V16a3.75 3.75 0 01-3.75 3.75H5.75z" fill="#AFAFAF"></path>
</svg>